<?xml version="1.0" encoding="UTF-8" standalone="no"?>
<svg
   xmlns:dc="http://purl.org/dc/elements/1.1/"
   xmlns:cc="http://creativecommons.org/ns#"
   xmlns:rdf="http://www.w3.org/1999/02/22-rdf-syntax-ns#"
   xmlns:svg="http://www.w3.org/2000/svg"
   xmlns="http://www.w3.org/2000/svg"
   xmlns:sodipodi="http://sodipodi.sourceforge.net/DTD/sodipodi-0.dtd"
   xmlns:inkscape="http://www.inkscape.org/namespaces/inkscape"
   version="1.1"
   id="svg2"
   xml:space="preserve"
   width="664.76001"
   height="243.03999"
   viewBox="0 0 664.76001 243.03999"
   sodipodi:docname="FOH_logo_color (2) (1).eps"><metadata
     id="metadata8"><rdf:RDF><cc:Work
         rdf:about=""><dc:format>image/svg+xml</dc:format><dc:type
           rdf:resource="http://purl.org/dc/dcmitype/StillImage" /></cc:Work></rdf:RDF></metadata><defs
     id="defs6" /><sodipodi:namedview
     pagecolor="#ffffff"
     bordercolor="#666666"
     borderopacity="1"
     objecttolerance="10"
     gridtolerance="10"
     guidetolerance="10"
     inkscape:pageopacity="0"
     inkscape:pageshadow="2"
     inkscape:window-width="640"
     inkscape:window-height="480"
     id="namedview4" /><g
     id="g10"
     inkscape:groupmode="layer"
     inkscape:label="ink_ext_XXXXXX"
     transform="matrix(1.3333333,0,0,-1.3333333,0,243.04)"><g
       id="g12"
       transform="scale(0.1)"><path
         d="m 982.887,1363.66 c 0,-23.03 1.437,-46.2 -0.403,-69.09 -1.812,-22.49 -6.953,-44.71 -9.093,-68.75 107.289,98.87 231.129,154.69 376.469,156.8 0.87,-2.18 1.74,-4.35 2.61,-6.53 -8.58,-2.77 -16.98,-6.47 -25.77,-8.17 -101,-19.56 -188.73,-65.54 -265.79,-132.9 -1.83,-1.59 -3.14,-3.79 -5.98,-7.29 87.11,21.11 172.77,24 258.82,8.59 0.18,-1.56 0.36,-3.12 0.54,-4.68 -6.37,-0.59 -12.73,-1.61 -19.1,-1.71 -59.84,-0.96 -119.04,-8.66 -177.44,-20.66 -33.39,-6.86 -65.76,-18.91 -98.35,-29.36 -27.509,-8.8 -40.912,-33.07 -55.896,-54.72 -30.758,-44.43 -58.371,-90.86 -78.453,-141.182 -13.621,-34.129 -25.727,-68.887 -37.387,-103.746 -2.676,-8 -2.18,-17.785 -0.687,-26.321 7.308,-41.832 15.39,-83.531 23.363,-125.25 0.902,-4.742 2.855,-9.269 4.965,-15.921 6.359,5.011 11.168,8.839 16.031,12.609 13.551,10.48 26.168,22.601 40.906,30.992 22.039,12.559 39.008,29.988 55.574,48.488 32.734,36.555 61.054,76.223 85.854,118.489 3.03,5.156 6.97,9.773 13.19,13.597 0.66,-22.422 -6.4,-42.757 -14.25,-62.867 -7.71,-19.742 -15.78,-39.355 -25.3,-63.027 78.49,19.316 154.31,27.883 231.14,17.082 0.14,-1.289 0.27,-2.59 0.41,-3.879 -5.23,-0.684 -10.46,-1.945 -15.69,-1.945 -40.97,-0.039 -80.84,-7.207 -119.95,-18.649 -58.22,-17.019 -109.76,-46.859 -155.341,-86.25 -33.664,-29.09 -63.789,-61.832 -88.793,-99.031 -8.164,-12.149 -12.637,-24.297 -11.477,-39.078 4.938,-62.602 9.414,-125.242 14.063,-187.871 0.234,-3.16 0.68,-6.321 0.766,-9.489 1.695,-60.921 6.816,-286.1207 8.273,-347.0504 -1.055,-43.28123 -159.977,-41.24998 -156.852,1.1407 0.403,43.8984 3.274,234.9567 6.5,278.6097 3.184,43.019 5.582,86.109 8.864,129.129 2.89,37.929 6.965,75.761 9.652,113.699 1.617,22.781 2.309,45.703 1.832,68.519 -0.148,6.782 -4.246,14.742 -8.961,19.953 -36.391,40.27 -78.234,74.168 -123.394,104.161 -20.336,13.488 -43.911,12.57 -66.274,14.027 -67.594,4.383 -134.367,-2.199 -199.75,-20.719 -5.832,-1.66 -11.965,-2.238 -17.957,-3.32 -0.84,1.398 -1.68,2.808 -2.523,4.199 4.191,3.832 7.875,8.492 12.64,11.352 39.758,23.898 83.18,37.25 128.848,43.961 8.652,1.269 17.262,2.859 25.894,4.289 0.317,1.449 0.641,2.879 0.958,4.32 -11.141,4.617 -22.075,9.84 -33.461,13.75 -61.965,21.238 -125.036,37.918 -190.289,45.508 -5.016,0.574 -9.844,2.773 -14.235,7.312 87.594,15.02 173.184,6.836 257.781,-18.133 85.102,-25.128 161.571,-66.527 233.36,-123.199 0.726,7.492 1.84,12.762 1.664,17.973 -3.324,98.75 -29.723,189.703 -88.906,270.368 -40.344,54.98 -94.801,80.41 -161.457,82.22 -32.372,0.88 -64.934,2.04 -97.149,-0.42 -35.945,-2.75 -71.805,-8.29 -107.305,-14.8 -30.476,-5.59 -60.375,-14.34 -90.586,-21.46 -3.441,-0.81 -7.234,-0.12 -11.417,2.27 74.91,40.29 155.167,63.25 239.949,75.11 -63.52,27.22 -122.594,59.15 -166.735,112.35 1.008,1.67 2.016,3.34 3.024,5 13.187,-6.88 26.265,-14 39.59,-20.6 58.531,-28.99 116.906,-58.31 175.875,-86.37 14.636,-6.97 31.089,-10.63 47.074,-14.13 17.687,-3.86 35.793,-5.81 57.316,-9.15 -7.472,141.75 20.317,275.36 73.242,404.14 0.497,1.22 3.008,1.62 6.668,3.44 -7.523,-38.82 -16.273,-75.67 -21.453,-113.01 -5.09,-36.69 -6.554,-73.88 -6.98,-111.78 25.449,36.04 52.711,69.06 88.105,94.06 34.938,24.69 72.731,43.16 114.981,49.94 0.926,-1.94 1.851,-3.88 2.773,-5.81 -5.137,-3.02 -10.222,-6.13 -15.422,-9.04 -53.289,-29.72 -100.363,-67.16 -137.511,-115.71 -16.11,-21.06 -28.418,-44.99 -42.817,-67.38 -14.336,-22.28 -9.394,-46.67 -7.347,-70.32 2.128,-24.58 6.21,-49.04 10.726,-73.32 1.234,-6.64 5.68,-14.45 11.09,-18.25 29.316,-20.57 49.211,-49.23 69.246,-77.82 12.172,-17.38 23.785,-35.145 37.746,-55.841 8.574,18.496 14.621,33.707 22.426,47.961 20.703,37.82 39.687,76.94 64.09,112.27 20.34,29.45 33.64,60.84 43.398,94.35 13.297,45.67 25.672,91.6 38.602,137.37 0.773,2.75 2.961,5.1 4.492,7.64 0.848,-0.35 1.703,-0.69 2.551,-1.04"
         style="fill:#351f17;fill-opacity:1;fill-rule:nonzero;stroke:none"
         id="path14" /><path
         d="m 1407.87,832.555 c 64.14,1.847 107.1,-47.274 125.88,-92.633 4.32,-10.41 0.03,-17.242 -10.39,-20.313 -63.33,-18.679 -126.14,-8.769 -167.09,54.082 -5.17,7.93 -9.39,16.528 -13.5,25.09 -7.38,15.391 -5.84,19.981 11.17,24.157 17.69,4.343 35.93,6.503 53.93,9.617"
         style="fill:#80cc28;fill-opacity:1;fill-rule:nonzero;stroke:none"
         id="path16" /><path
         d="m 1157.12,889.313 c -25.19,1.464 -27.02,4.765 -22.48,29.757 6.53,35.996 19.02,68.739 47.91,92.66 28.7,23.77 62.95,31.63 99.49,30.95 9.31,-0.18 12.96,-5.87 13.42,-14.98 2.72,-54.387 -45.9,-118.126 -99.5,-130.032 -12.93,-2.871 -25.89,-5.57 -38.84,-8.355"
         style="fill:#80cc28;fill-opacity:1;fill-rule:nonzero;stroke:none"
         id="path18" /><path
         d="m 1063.21,1058.93 c 2.1,62.81 28.3,100.22 70.46,128.09 8.34,5.51 13.82,2.79 18.39,-5.46 39.06,-70.5 31.5,-141.79 -37.37,-191.279 -16.49,-11.855 -22.92,-11.226 -30.3,6.953 -9.44,23.246 -16.4,47.506 -21.18,61.696"
         style="fill:#80cc28;fill-opacity:1;fill-rule:nonzero;stroke:none"
         id="path20" /><path
         d="m 1327.05,852.195 c -13.06,-0.382 -36.01,6.184 -57.61,17.606 -12.9,6.816 -13.22,9.738 -5.3,21.965 18.62,28.773 41.54,52.761 73.94,65.988 41.34,16.863 80.68,9.762 118.69,-10.68 7.8,-4.207 10.78,-9.781 5.04,-18.562 -29.17,-44.707 -66.01,-76.676 -134.76,-76.317"
         style="fill:#2e8629;fill-opacity:1;fill-rule:nonzero;stroke:none"
         id="path22" /><path
         d="m 1236.09,799.852 c 68.9,-0.524 123.61,-44.512 135,-121.75 2.64,-17.93 -2.65,-22.563 -20.66,-21.59 -29.95,1.617 -59.32,4.207 -85.31,21.84 -36.57,24.796 -55.52,59.777 -61.1,102.738 -2.19,16.871 -0.62,18.25 16.85,18.738 5.07,0.141 10.14,0.024 15.22,0.024"
         style="fill:#80cc28;fill-opacity:1;fill-rule:nonzero;stroke:none"
         id="path24" /><path
         d="m 991.277,873.445 c -22.75,20.407 -34.605,46.141 -41.996,73.793 -14.363,53.702 6.692,96.722 43.567,133.992 9.942,10.05 14.672,9.66 23.382,-1.2 54.47,-67.89 48.38,-152.639 -24.953,-206.585"
         style="fill:#2e8629;fill-opacity:1;fill-rule:nonzero;stroke:none"
         id="path26" /><path
         d="m 1360.1,1054.32 c -78.81,3.82 -129.13,52.79 -135.73,133.43 -0.87,10.63 3.86,15.58 14.07,15.44 70.62,-0.93 134.41,-33.84 145.66,-117.66 0.17,-1.26 0.32,-2.51 0.49,-3.77 3.74,-27.09 3,-27.92 -24.49,-27.44"
         style="fill:#2e8629;fill-opacity:1;fill-rule:nonzero;stroke:none"
         id="path28" /><path
         d="m 1448.84,1580.66 c 20.53,0.53 24.06,-2.48 22.35,-22.62 -5.47,-64.38 -49.05,-118.13 -114.27,-126.24 -9.44,-1.17 -18.9,-2.87 -28.36,-2.98 -14.55,-0.18 -18.68,4.15 -16.95,18.4 9.31,76.46 53.08,129.92 137.23,133.44"
         style="fill:#80cc28;fill-opacity:1;fill-rule:nonzero;stroke:none"
         id="path30" /><path
         d="m 1203.55,1486.68 c -1.87,-51.5 -16.57,-96.87 -65.65,-122.38 -17.08,-8.87 -36.53,-13.63 -55.34,-18.53 -11.57,-3 -18.53,2.76 -18.71,15.23 -1.19,79.3 32.83,139.64 123.69,155.79 11.26,2.01 15.28,-3.2 15.94,-13 0.38,-5.68 0.07,-11.4 0.07,-17.11"
         style="fill:#80cc28;fill-opacity:1;fill-rule:nonzero;stroke:none"
         id="path32" /><path
         d="m 1507.23,1325.14 c -44.52,-0.03 -75.56,14.32 -102.58,38.04 -13.93,12.23 -13.15,17.34 1.45,29.99 38.27,33.18 81.28,48.28 131.71,34.4 24.38,-6.7 44.69,-20.46 62.74,-37.87 6.62,-6.4 8,-12.92 0.69,-19.5 -29.01,-26.12 -61.77,-43.86 -94.01,-45.06"
         style="fill:#80cc28;fill-opacity:1;fill-rule:nonzero;stroke:none"
         id="path34" /><path
         d="m 151.625,756.289 c 27.449,42.473 58.469,75.602 111.23,81.961 32.02,3.867 60.043,-5.266 87.801,-18.5 8.852,-4.23 12.778,-9.91 6.539,-19.559 -30.695,-47.441 -71.539,-77.222 -130.644,-72.863 -26.723,1.973 -51.535,10.992 -74.926,28.961"
         style="fill:#2e8629;fill-opacity:1;fill-rule:nonzero;stroke:none"
         id="path36" /><path
         d="m 1427.24,1240.44 c 63.01,3.65 107.94,-40.64 127.73,-89.17 6.11,-14.98 4.16,-18.92 -11.61,-23.17 -37.06,-9.99 -73.65,-11.68 -109.62,5.4 -34.31,16.3 -54.02,45.07 -69.02,78.07 -4.68,10.31 -0.75,17.68 10.29,19.85 17.33,3.41 34.82,6.05 52.23,9.02"
         style="fill:#80cc28;fill-opacity:1;fill-rule:nonzero;stroke:none"
         id="path38" /><path
         d="m 704.504,1203.82 c 1.465,57.52 24.996,94.79 67.617,120.76 37.969,23.14 41.43,21.25 50.473,-21.54 13.859,-65.57 -18.809,-125.43 -85.297,-153.67 -14.086,-5.98 -21.469,-2.47 -25.074,12.78 -3.762,15.94 -6.016,32.24 -7.719,41.67"
         style="fill:#80cc28;fill-opacity:1;fill-rule:nonzero;stroke:none"
         id="path40" /><path
         d="m 716.332,822.09 c -74.059,1.785 -127.394,51.316 -136.309,130.094 -1.222,10.808 3.364,15.027 13.782,15.359 83.281,2.637 141.785,-41.242 150.871,-129.5 1.094,-10.664 -2.551,-15.754 -13.11,-15.922 -5.078,-0.09 -10.156,-0.012 -15.234,-0.031"
         style="fill:#80cc28;fill-opacity:1;fill-rule:nonzero;stroke:none"
         id="path42" /><path
         d="m 535.816,1088.54 c 36.539,-3.43 70.168,-20.31 97.176,-50.47 6.235,-6.96 6.496,-13.04 -1.281,-19.28 -63.895,-51.321 -133.926,-53.114 -195.184,4.82 -13.078,12.37 -13.027,18.03 1.336,28.78 27.828,20.84 58.137,36.16 97.953,36.15"
         style="fill:#80cc28;fill-opacity:1;fill-rule:nonzero;stroke:none"
         id="path44" /><path
         d="m 879.93,1219.95 c -63.285,57.09 -64.184,160.47 14.136,213.6 64.352,-58.98 63.657,-158.48 -14.136,-213.6"
         style="fill:#2e8629;fill-opacity:1;fill-rule:nonzero;stroke:none"
         id="path46" /><path
         d="m 205.676,565.57 c -27.465,0.219 -30.946,2.879 -26.481,29.559 13.133,78.422 65.535,119.59 142.254,120.18 13.789,0.113 18.168,-4.18 16.508,-17.047 -8.07,-62.633 -35.363,-114.641 -107.797,-130.032 -7.988,-1.699 -16.316,-1.808 -24.484,-2.66"
         style="fill:#80cc28;fill-opacity:1;fill-rule:nonzero;stroke:none"
         id="path48" /><path
         d="m 752.309,1455.52 c -9.512,0 -19.059,-0.52 -28.524,0.15 -7.676,0.54 -11.328,5.55 -9.484,13.27 11.258,47.24 30.512,88.68 77.871,110.89 26.281,12.33 53.769,13.69 81.859,12.01 9.067,-0.54 14.492,-5.25 12.469,-14.96 -11.023,-53.02 -33.855,-97.34 -89.387,-115.59 -14.218,-4.68 -29.582,-5.87 -44.422,-8.66 -0.125,0.96 -0.257,1.92 -0.382,2.89"
         style="fill:#80cc28;fill-opacity:1;fill-rule:nonzero;stroke:none"
         id="path50" /><path
         d="m 30.6875,846.676 c 38.1445,65.39 115.7925,91.515 184.1835,55.265 2.242,-1.187 4.391,-2.543 6.598,-3.8 25.683,-14.618 26.82,-19.786 5.824,-40.078 -31.566,-30.508 -67.141,-51.563 -113.684,-47.735 -31.8668,2.621 -57.4293,17.434 -82.9215,36.348"
         style="fill:#2e8629;fill-opacity:1;fill-rule:nonzero;stroke:none"
         id="path52" /><path
         d="m 665.918,1555.25 c -4.719,-19.52 -9.176,-39.12 -14.281,-58.54 -1.985,-7.57 -6.821,-12.78 -15.477,-8.26 -37.219,19.43 -70.707,42.79 -84.086,85.5 -10.386,33.16 -7.89,66.1 3.574,98.6 3.868,10.96 11.301,12.81 21.043,8.16 45.914,-21.94 89.727,-63.93 89.227,-125.46"
         style="fill:#80cc28;fill-opacity:1;fill-rule:nonzero;stroke:none"
         id="path54" /><path
         d="m 996.383,1418.27 c -15.656,18.05 -23.758,39.86 -27.246,61.92 -8.285,52.4 5.515,97.77 49.523,131.36 32.97,25.16 27.55,19.26 42.1,-11.08 33.08,-68.98 8.64,-145.58 -56.66,-179.67 -2.14,-1.12 -4.651,-1.54 -7.717,-2.53"
         style="fill:#2e8629;fill-opacity:1;fill-rule:nonzero;stroke:none"
         id="path56" /><path
         d="m 230.305,1233.93 c 50.586,-0.52 84.988,-20.73 113.496,-53.17 7.972,-9.07 5.617,-15.61 -3.192,-21.97 -65.019,-46.89 -138.886,-42.47 -193.367,17.02 -11.113,12.13 -11.117,16.39 1.531,26.15 25.786,19.93 55.207,30.46 81.532,31.97"
         style="fill:#80cc28;fill-opacity:1;fill-rule:nonzero;stroke:none"
         id="path58" /><path
         d="m 480.047,693.551 c 5.683,-63.039 -38.516,-113.082 -92.223,-130.672 -4.781,-1.57 -9.707,-3.078 -14.672,-3.609 -14.804,-1.598 -18.261,1.191 -19.039,15.878 -0.668,12.653 -0.394,25.352 -0.73,38.012 -1.36,51.211 34.125,98.11 84.258,117.36 7.078,2.73 14.25,5.402 21.593,7.21 14.407,3.571 18.457,0.622 20.45,-13.781 0.261,-1.879 0.339,-3.801 0.347,-5.687 0.035,-8.231 0.016,-16.481 0.016,-24.711"
         style="fill:#80cc28;fill-opacity:1;fill-rule:nonzero;stroke:none"
         id="path60" /><path
         d="m 539.348,1182.55 c -58.961,35.52 -85.211,98.41 -64.52,158.54 4.914,14.28 11.805,28.12 19.531,41.13 7.231,12.2 11.633,12.35 22.539,4 44.985,-34.46 66.497,-79.53 57.387,-136.18 -4.047,-25.15 -15.875,-47.91 -34.937,-67.49"
         style="fill:#2e8629;fill-opacity:1;fill-rule:nonzero;stroke:none"
         id="path62" /><path
         d="m 435.309,1308.8 c -3.871,-17.33 -6.957,-36.16 -12.469,-54.24 -4.18,-13.7 -11.051,-15.89 -23.293,-8.83 -36.426,21 -68.684,45.67 -79.621,89.77 -8.102,32.66 -4.981,63.95 7.57,94.72 3.34,8.18 9.141,10.43 16.738,6.32 35.313,-19.06 66.887,-42.47 81.844,-81.43 5.344,-13.93 6.063,-29.65 9.231,-46.31"
         style="fill:#80cc28;fill-opacity:1;fill-rule:nonzero;stroke:none"
         id="path64" /><path
         d="m 802.527,1698.47 c -2.183,-49.07 -29.593,-82.17 -68.418,-107.74 -8.043,-5.3 -15.558,-1.5 -18.589,6.6 -7.938,21.17 -18.27,42.28 -21.352,64.29 -7.551,53.94 19.469,93.44 60.391,124.81 15.004,11.51 19.199,9.91 27.597,-6.15 13.172,-25.21 21.059,-56.56 20.371,-81.81"
         style="fill:#80cc28;fill-opacity:1;fill-rule:nonzero;stroke:none"
         id="path66" /><path
         d="m 133.914,1059.74 c 12.543,-1.76 25.215,-2.9 37.594,-5.47 13.93,-2.88 17.558,-8.97 12.617,-21.77 -12.832,-33.211 -31.285,-62.473 -62.379,-81.781 -25.328,-15.723 -53.2616,-19.461 -82.4179,-16.586 -8.207,0.812 -16.4804,1.406 -24.5664,2.941 C 2.23047,939.457 -1.82031,945.441 2.17578,957.297 22.1445,1016.57 66.6563,1060.36 133.914,1059.74"
         style="fill:#80cc28;fill-opacity:1;fill-rule:nonzero;stroke:none"
         id="path68" /><path
         d="m 280.953,1328.31 c -0.273,-2.09 -0.769,-6.5 -1.445,-10.88 -5.024,-32.88 -6.332,-33.87 -36.613,-21.66 -21.895,8.82 -42.598,19.71 -59.082,37.41 -33.125,35.59 -41.348,77.28 -31.321,123.72 2.203,10.19 7.492,13.47 17.895,10.5 34.582,-9.86 65.011,-26.86 86.562,-55.77 17.508,-23.49 22.86,-51.93 24.004,-83.32"
         style="fill:#2e8629;fill-opacity:1;fill-rule:nonzero;stroke:none"
         id="path70" /><path
         d="m 1100.83,740.57 c -0.16,23.219 2.6,25.762 25.13,21.2 61.35,-12.411 86.95,-53.75 89.17,-106.571 0.76,-17.828 -5.59,-22.969 -23.3,-19.5 -55.31,10.813 -88.82,45.992 -91,104.871"
         style="fill:#2e8629;fill-opacity:1;fill-rule:nonzero;stroke:none"
         id="path72" /><path
         d="m 1534.51,906.023 c 30.13,1.973 53.3,-13.312 75.54,-30.675 8.55,-6.688 10.29,-14.071 1.04,-21.903 -46.6,-39.433 -100.79,-44.707 -149.2,-1.437 -13.09,11.711 -12.32,15.441 1.75,26.496 20.82,16.371 43.07,29.105 70.87,27.519"
         style="fill:#80cc28;fill-opacity:1;fill-rule:nonzero;stroke:none"
         id="path74" /><path
         d="m 592.973,677.512 c -1.5,-44.891 -24.422,-74.184 -61.864,-94.41 -8.523,-4.614 -14.554,-3.204 -18.3,5.789 -23.657,56.738 -8,115.238 48.722,144.507 10.336,5.332 17.621,2.832 20.551,-8.027 4.258,-15.781 7.316,-31.891 10.891,-47.859"
         style="fill:#80cc28;fill-opacity:1;fill-rule:nonzero;stroke:none"
         id="path76" /><path
         d="m 1539.89,998.656 c 1.02,-11.133 -3.74,-16.191 -15.23,-16.633 -53.61,-2.058 -99.59,33.987 -109.58,86.667 -1.17,6.17 -2.39,12.99 -0.86,18.8 1.09,4.17 6.8,10.26 10.33,10.18 61.84,-1.36 103.69,-27.02 114.87,-93.32 0.31,-1.87 0.32,-3.8 0.47,-5.694"
         style="fill:#80cc28;fill-opacity:1;fill-rule:nonzero;stroke:none"
         id="path78" /><path
         d="m 868.246,864.227 c -0.957,30.195 10.723,53.636 28.176,74.722 5.012,6.043 10.937,12.114 18.746,3.469 20.855,-23.094 37.258,-48.465 37.027,-81.043 -0.207,-28.684 -12.336,-52.523 -31.457,-73.355 -7.566,-8.231 -14.218,-7.051 -20.511,0.921 -17.938,22.7 -33.719,46.34 -31.981,75.286"
         style="fill:#80cc28;fill-opacity:1;fill-rule:nonzero;stroke:none"
         id="path80" /><path
         d="m 1477.13,1278.49 c 38.1,37.48 99.8,36.9 141.61,-0.44 27.42,-24.48 25.97,-33.88 -7.23,-48.31 -47.98,-20.84 -105.9,-5.74 -134.38,48.75"
         style="fill:#2e8629;fill-opacity:1;fill-rule:nonzero;stroke:none"
         id="path82" /><path
         d="m 1256.11,1304.39 c 38.34,50.83 113.75,54.83 158.09,10.68 7.06,-7.02 8.99,-13.57 0.81,-20.86 -49.81,-44.36 -110.97,-45.14 -158.9,10.18"
         style="fill:#80cc28;fill-opacity:1;fill-rule:nonzero;stroke:none"
         id="path84" /><path
         d="m 1177.85,1650.46 c -0.83,-49.69 -22.91,-76.84 -53.71,-98.8 -8.49,-6.05 -14.54,-2.49 -18.51,5.42 -26.04,51.91 -19.31,108.97 33.64,144.09 12.99,8.62 19.19,7.31 24.99,-7.26 6.69,-16.83 10.91,-34.64 13.59,-43.45"
         style="fill:#80cc28;fill-opacity:1;fill-rule:nonzero;stroke:none"
         id="path86" /><path
         d="m 1310.58,1559.41 c -3.69,-40.48 -24.55,-67.61 -55.82,-88.43 -7.19,-4.78 -12.79,-3.41 -17.25,4.4 -30.96,54.14 -18.03,113.24 33.26,146.8 10.21,6.67 17.06,5.7 21.38,-5.42 7.25,-18.69 12.4,-38.19 18.43,-57.35"
         style="fill:#2e8629;fill-opacity:1;fill-rule:nonzero;stroke:none"
         id="path88" /><path
         d="m 860.707,1181.02 c 33.27,0.07 36.645,-5.06 23.973,-36.48 -20.2,-50.08 -61.446,-74.09 -115.082,-66.99 -13.703,1.81 -17.93,7.32 -13.535,20.9 15.351,47.41 46.843,84.82 104.644,82.57"
         style="fill:#80cc28;fill-opacity:1;fill-rule:nonzero;stroke:none"
         id="path90" /><path
         d="m 612.984,1419.85 c -0.046,-37.42 -4.562,-40.54 -38.367,-26.48 -46.633,19.39 -73.316,71.06 -60.836,117.79 4.055,15.17 6.739,16.64 21.129,11.55 51.156,-18.11 78.145,-53.66 78.074,-102.86"
         style="fill:#80cc28;fill-opacity:1;fill-rule:nonzero;stroke:none"
         id="path92" /><path
         d="m 306.301,1064 c 12.347,-2.3 24.769,-4.29 37.027,-7 8.582,-1.91 11.043,-7.81 7.84,-15.86 -22.039,-55.425 -78.203,-90.597 -139.188,-66.156 -7.363,2.954 -9.351,8.008 -6.386,15.118 16.289,39.038 46.836,74.228 100.707,73.898"
         style="fill:#2e8629;fill-opacity:1;fill-rule:nonzero;stroke:none"
         id="path94" /><path
         d="m 395.152,909.523 c -27.269,-2.011 -49.593,7.633 -69.461,23.614 -12.179,9.789 -11.929,15.343 -0.16,25.918 18.321,16.468 39.375,28.883 63.645,32.308 32.687,4.621 60.859,-8.152 85.39,-29.133 6.711,-5.742 5.293,-12.765 -1.046,-18.019 -23.133,-19.148 -46.442,-38.145 -78.368,-34.688"
         style="fill:#80cc28;fill-opacity:1;fill-rule:nonzero;stroke:none"
         id="path96" /><path
         d="m 159.133,1117.31 c -52.281,-39.16 -128.4963,-22.65 -156.22675,32.02 -5.32031,10.49 0.52734,15.24 8.72655,19.19 51.6406,24.86 109.7382,13.87 140.9722,-38.74 2.223,-3.74 4.051,-7.71 6.528,-12.47"
         style="fill:#80cc28;fill-opacity:1;fill-rule:nonzero;stroke:none"
         id="path98" /><path
         d="m 922.574,1721.93 c 36.559,-0.02 39.035,-3.83 24.688,-37.92 -19.692,-46.81 -66.692,-72.72 -113.324,-62.46 -14.684,3.23 -17.657,7.06 -13.622,20.66 13.914,46.95 49.707,82.45 102.258,79.72"
         style="fill:#2e8629;fill-opacity:1;fill-rule:nonzero;stroke:none"
         id="path100" /><path
         d="m 120.25,1318.15 c 29.625,0.94 54.449,-10.1 75.266,-30.63 11.015,-10.86 11.269,-14.34 -1.227,-24.14 -46.742,-36.63 -102.9296,-36.34 -145.8359,7.41 -8.6953,8.85 -7.9492,13.76 1.7071,21.94 18.6562,15.81 44.8632,25.31 70.0898,25.42"
         style="fill:#80cc28;fill-opacity:1;fill-rule:nonzero;stroke:none"
         id="path102" /><path
         d="m 420.844,1657.12 c 1.976,11.8 3.129,23.15 5.941,34.07 2.192,8.52 7.996,12.28 17.438,8.25 54.062,-23.06 84.445,-70.39 68.015,-129.68 -3.968,-14.33 -8.425,-17.76 -19.597,-12.41 -29.161,13.98 -55.524,31.6 -65.696,64.69 -3.476,11.31 -4.164,23.47 -6.101,35.08"
         style="fill:#2e8629;fill-opacity:1;fill-rule:nonzero;stroke:none"
         id="path104" /><path
         d="m 565.082,1773.37 c 2.523,12.89 4.406,25.95 7.758,38.62 2.91,11.01 10.965,13.19 20.762,8.28 29.613,-14.84 53.273,-36.7 59.683,-69.52 3.977,-20.37 0.207,-42.72 -2.726,-63.81 -1.86,-13.37 -10.391,-17.29 -20.309,-11.14 -19.812,12.3 -39.816,24.5 -51.762,46.22 -8.875,16.14 -13.324,32.69 -13.406,51.35"
         style="fill:#80cc28;fill-opacity:1;fill-rule:nonzero;stroke:none"
         id="path106" /><path
         d="m 471.293,1433.39 c -3.215,-15.87 -5.27,-29.57 -8.914,-42.84 -2.547,-9.29 -8.992,-13.55 -18.918,-8.11 -54.773,30.03 -75.031,70.62 -58.406,132.56 4.621,17.22 10.867,18.5 26.445,9.57 20.742,-11.9 39.23,-26.46 48.32,-49.19 5.496,-13.75 7.95,-28.72 11.473,-41.99"
         style="fill:#80cc28;fill-opacity:1;fill-rule:nonzero;stroke:none"
         id="path108" /><path
         d="m 29.7422,1455.3 c 53.293,-0.7 92.3398,-33.23 101.3668,-84.44 2.375,-13.47 -0.332,-17.97 -13.675,-18.73 -56.2973,-3.18 -99.7035,20.09 -114.91056,79.33 -5.36719,20.9 -3.355471,23.37 17.73436,23.83 3.1563,0.07 6.3203,0.01 9.4844,0.01"
         style="fill:#80cc28;fill-opacity:1;fill-rule:nonzero;stroke:none"
         id="path110" /><path
         d="m 2021.68,1244.8 v -38.53 h -236.36 v -173.41 h 215.16 V 994.32 H 1785.32 V 795.219 h -41.74 V 1244.8 h 278.1"
         style="fill:#845333;fill-opacity:1;fill-rule:nonzero;stroke:none"
         id="path112" /><path
         d="m 2119.27,1124.7 v -73.86 c 15.42,52.03 62.29,82.86 132.95,82.86 14.76,0 28.9,-1.29 41.74,-6.43 l 4.49,-39.18 c -15.41,7.07 -34.03,9.64 -55.22,9.64 -74.51,0 -122.04,-59.09 -122.04,-125.246 V 795.219 h -38.53 V 1124.7 h 36.61"
         style="fill:#845333;fill-opacity:1;fill-rule:nonzero;stroke:none"
         id="path114" /><path
         d="M 2397.98,1124.7 V 795.219 h -38.53 V 1124.7 Z m 0,152.22 v -100.2 h -38.53 v 100.2 h 38.53"
         style="fill:#845333;fill-opacity:1;fill-rule:nonzero;stroke:none"
         id="path116" /><path
         d="m 2653.58,1098.37 c -77.07,0 -125.24,-45.6 -134.24,-114.323 h 249.2 c -1.92,84.773 -53.3,114.323 -114.96,114.323 z m 0,35.96 c 113.68,0 166.34,-77.07 157.35,-184.963 h -293.51 c 3.86,-71.304 51.38,-127.808 141.95,-127.808 53.93,0 91.83,17.336 118.81,39.816 l 22.48,-27.617 c -33.4,-28.246 -80.29,-47.52 -144.51,-47.52 -122.03,0 -180.48,75.789 -180.48,172.766 0,95.046 64.23,175.326 177.91,175.326"
         style="fill:#845333;fill-opacity:1;fill-rule:nonzero;stroke:none"
         id="path118" /><path
         d="m 2919.45,1124.7 v -70.65 c 15.4,46.88 62.28,80.28 132.94,80.28 84.77,0 139.37,-47.52 139.37,-141.295 V 795.219 h -38.53 v 188.828 c 0,86.063 -42.41,115.603 -107.26,115.603 -80.29,0 -124.61,-57.8 -124.61,-123.951 v -180.48 h -38.54 V 1124.7 h 36.63"
         style="fill:#845333;fill-opacity:1;fill-rule:nonzero;stroke:none"
         id="path120" /><path
         d="m 3443.49,820.27 c 98.91,0 146.42,73.218 146.42,134.875 v 18.621 c 0,73.224 -62.93,125.884 -141.94,125.884 -89.26,0 -143.86,-54.6 -143.86,-140.009 0,-90.563 59.74,-139.371 139.38,-139.371 z m -2.57,314.06 c 80.27,0 132.31,-41.74 147.06,-77.07 v 219.66 h 37.9 V 795.219 h -35.97 v 70.66 c -19.26,-34.691 -61.64,-80.289 -152.21,-80.289 -105.32,0 -175.34,67.433 -175.34,172.129 0,109.821 77.09,176.611 178.56,176.611"
         style="fill:#845333;fill-opacity:1;fill-rule:nonzero;stroke:none"
         id="path122" /><path
         d="m 3838.42,818.988 c 54.6,0 90.56,17.336 90.56,67.434 0,50.094 -49.46,59.726 -100.83,69.363 -55.24,10.281 -113.67,22.485 -113.67,86.065 0,61.66 52.02,92.48 125.22,92.48 53.95,0 96.36,-15.41 122.68,-32.74 l -13.49,-29.55 c -25.68,16.05 -55.87,30.18 -109.19,30.18 -58.44,0 -85.42,-19.9 -85.42,-57.17 0,-41.74 44.32,-50.081 92.49,-59.081 58.44,-10.918 122.68,-23.758 122.68,-96.977 0,-60.383 -39.19,-102.754 -128.45,-102.754 -49.45,0 -105.34,14.121 -141.94,40.457 l 15.42,31.465 c 33.38,-21.199 77.07,-39.172 123.94,-39.172"
         style="fill:#845333;fill-opacity:1;fill-rule:nonzero;stroke:none"
         id="path124" /><path
         d="m 1897.08,186.102 c 88.63,0 151.57,53.937 151.57,140.007 0,87.993 -66.15,138.711 -149.65,138.711 -86.7,0 -152.22,-53.929 -152.22,-141.922 0,-88.636 65.52,-136.796 150.3,-136.796 z m 1.92,313.41 c 123.95,0 191.4,-77.063 191.4,-171.492 0,-96.969 -70.66,-176.61 -195.89,-176.61 -120.11,0 -189.47,71.93 -189.47,171.488 0,96.34 66.79,176.614 193.96,176.614"
         style="fill:#845333;fill-opacity:1;fill-rule:nonzero;stroke:none"
         id="path126" /><path
         d="m 2175.78,489.871 v 39.188 c 0,77.07 44.31,123.312 118.82,123.312 25.69,0 53.31,-5.141 71.93,-13.492 l 5.14,-35.957 c -23.12,8.988 -50.1,14.758 -72.58,14.758 -58.45,0 -84.78,-28.25 -84.78,-90.551 v -37.258 h 137.45 V 455.199 H 2214.31 V 160.398 h -38.53 v 294.801 h -66.15 v 34.672 h 66.15"
         style="fill:#845333;fill-opacity:1;fill-rule:nonzero;stroke:none"
         id="path128" /><path
         d="M 2583.57,609.98 V 412.801 h 271.04 V 609.98 h 41.74 V 160.398 h -41.74 V 375.559 H 2583.57 V 160.398 h -41.74 V 609.98 h 41.74"
         style="fill:#845333;fill-opacity:1;fill-rule:nonzero;stroke:none"
         id="path130" /><path
         d="m 3168.63,186.102 c 88.62,0 151.57,53.937 151.57,140.007 0,87.993 -66.15,138.711 -149.66,138.711 -86.69,0 -152.21,-53.929 -152.21,-141.922 0,-88.636 65.52,-136.796 150.3,-136.796 z m 1.91,313.41 c 123.95,0 191.4,-77.063 191.4,-171.492 0,-96.969 -70.66,-176.61 -195.88,-176.61 -120.11,0 -189.49,71.93 -189.49,171.488 0,96.34 66.81,176.614 193.97,176.614"
         style="fill:#845333;fill-opacity:1;fill-rule:nonzero;stroke:none"
         id="path132" /><path
         d="m 3539.15,184.172 c 54.59,0 90.56,17.328 90.56,67.437 0,50.09 -49.45,59.723 -100.82,69.352 -55.24,10.289 -113.69,22.48 -113.69,86.059 0,61.671 52.02,92.492 125.24,92.492 53.97,0 96.34,-15.422 122.68,-32.75 l -13.49,-29.563 c -25.7,16.071 -55.89,30.192 -109.19,30.192 -58.44,0 -85.41,-19.903 -85.41,-57.161 0,-41.75 44.31,-50.089 92.47,-59.082 58.46,-10.918 122.68,-23.769 122.68,-96.988 0,-60.371 -39.17,-102.75 -128.46,-102.75 -49.45,0 -105.32,14.121 -141.92,40.461 l 15.4,31.469 c 33.4,-21.199 77.07,-39.168 123.95,-39.168"
         style="fill:#845333;fill-opacity:1;fill-rule:nonzero;stroke:none"
         id="path134" /><path
         d="m 3928.34,186.102 c 89.29,0 143.88,59.07 143.88,144.488 0,86.082 -58.46,134.23 -138.1,134.23 -98.27,0 -148.36,-73.199 -148.36,-134.23 v -18.61 c 0,-73.218 63.58,-125.878 142.58,-125.878 z m -141.29,303.769 v -71.293 c 18.62,34.051 64.87,80.934 154.78,80.934 105.98,0 172.13,-66.793 172.13,-171.492 0,-109.821 -77.06,-176.61 -178.55,-176.61 -80.29,0 -134.88,41.738 -147.71,77.059 V 27.4609 h -37.27 V 489.871 h 36.62"
         style="fill:#845333;fill-opacity:1;fill-rule:nonzero;stroke:none"
         id="path136" /><path
         d="M 4229.51,489.871 V 160.398 h -38.53 v 329.473 z m 0,152.231 V 541.891 h -38.53 v 100.211 h 38.53"
         style="fill:#845333;fill-opacity:1;fill-rule:nonzero;stroke:none"
         id="path138" /><path
         d="m 4492.18,499.512 c 48.82,0 89.28,-12.192 120.76,-32.75 l -20.55,-30.192 c -25.05,16.059 -57.81,26.981 -97.64,26.981 -95.69,0 -145.79,-58.442 -145.79,-139.371 0,-79.008 46.88,-138.078 138.09,-138.078 51.37,0 87.34,17.339 114.32,39.808 l 22.49,-27.621 c -33.41,-28.25 -77.72,-46.879 -135.53,-46.879 -122.02,0 -181.11,72.559 -181.11,172.77 0,95.058 62.3,175.332 184.96,175.332"
         style="fill:#845333;fill-opacity:1;fill-rule:nonzero;stroke:none"
         id="path140" /><path
         d="m 4827.41,463.551 c -77.07,0 -125.24,-45.61 -134.22,-114.321 h 249.2 c -1.94,84.77 -53.33,114.321 -114.98,114.321 z m 0,35.961 c 113.68,0 166.35,-77.063 157.35,-184.961 h -293.51 c 3.87,-71.313 51.39,-127.813 141.95,-127.813 53.95,0 91.84,17.332 118.8,39.813 l 22.49,-27.621 c -33.4,-28.258 -80.29,-47.52 -144.51,-47.52 -122.03,0 -180.48,75.789 -180.48,172.77 0,95.058 64.22,175.332 177.91,175.332"
         style="fill:#845333;fill-opacity:1;fill-rule:nonzero;stroke:none"
         id="path142" /><path
         d="M 4980.78,0 H 753.859 V 36.0313 H 4980.78 V 0"
         style="fill:#351f17;fill-opacity:1;fill-rule:nonzero;stroke:none"
         id="path144" /></g></g></svg>
