<svg xmlns="http://www.w3.org/2000/svg" width="664.76" height="243.04"><path d="M131.052 61.219c0 3.07.191 6.16-.054 9.212-.242 2.998-.927 5.961-1.213 9.166 14.306-13.182 30.818-20.625 50.196-20.906l.348.87c-1.144.37-2.264.863-3.436 1.09-13.466 2.608-25.164 8.738-35.438 17.72-.244.212-.419.505-.798.972 11.615-2.815 23.036-3.2 34.51-1.146l.072.624c-.85.079-1.698.215-2.547.228-7.979.128-15.872 1.155-23.659 2.755-4.452.915-8.768 2.521-13.113 3.915-3.668 1.173-5.455 4.409-7.453 7.296-4.1 5.924-7.783 12.114-10.46 18.824-1.816 4.55-3.43 9.185-4.985 13.833-.357 1.066-.29 2.371-.092 3.51.975 5.577 2.052 11.137 3.115 16.7.12.631.381 1.235.662 2.122.848-.668 1.49-1.179 2.138-1.681 1.807-1.398 3.489-3.014 5.454-4.132 2.938-1.675 5.201-3.999 7.41-6.466 4.364-4.874 8.14-10.163 11.447-15.798a5.026 5.026 0 011.759-1.813c.088 2.99-.854 5.7-1.9 8.382-1.028 2.633-2.104 5.248-3.374 8.404 10.466-2.576 20.575-3.718 30.819-2.278l.055.517c-.698.092-1.395.26-2.092.26-5.463.005-10.779.96-15.994 2.486-7.762 2.27-14.634 6.248-20.712 11.5-4.488 3.879-8.505 8.245-11.839 13.204-1.088 1.62-1.685 3.24-1.53 5.21.658 8.348 1.255 16.7 1.875 25.05.031.422.09.843.102 1.266.226 8.122.909 38.149 1.103 46.273-.14 5.77-21.33 5.5-20.913-.152.053-5.853.436-31.328.866-37.148.425-5.736.744-11.481 1.182-17.217.385-5.058.929-10.102 1.287-15.16.216-3.038.308-6.094.244-9.136-.02-.904-.566-1.966-1.195-2.66-4.852-5.37-10.43-9.89-16.452-13.889-2.712-1.798-5.855-1.676-8.837-1.87-9.012-.584-17.915.293-26.633 2.763-.778.221-1.595.298-2.394.442l-.337-.56c.56-.51 1.05-1.132 1.686-1.513 5.3-3.187 11.09-4.967 17.18-5.862 1.153-.169 2.301-.38 3.452-.571.042-.194.085-.384.128-.576-1.486-.616-2.944-1.312-4.462-1.834-8.262-2.832-16.671-5.056-25.372-6.068-.668-.076-1.312-.37-1.898-.974 11.68-2.003 23.092-.912 34.371 2.417 11.347 3.35 21.543 8.87 31.115 16.427.097-1 .245-1.702.222-2.397-.443-13.166-3.963-25.293-11.854-36.049-5.38-7.33-12.64-10.721-21.528-10.962-4.316-.118-8.658-.272-12.953.056-4.793.366-9.574 1.105-14.308 1.973-4.063.745-8.05 1.912-12.078 2.861-.458.108-.964.016-1.522-.302 9.988-5.372 20.689-8.434 31.993-10.015-8.47-3.63-16.346-7.887-22.231-14.98l.403-.667c1.758.918 3.502 1.867 5.279 2.747 7.804 3.865 15.587 7.775 23.45 11.516 1.951.93 4.145 1.417 6.276 1.884 2.359.515 4.773.775 7.642 1.22-.996-18.9 2.71-36.715 9.766-53.885.066-.163.401-.216.89-.459-1.004 5.176-2.17 10.09-2.861 15.068-.679 4.892-.874 9.85-.93 14.904 3.392-4.805 7.027-9.208 11.746-12.541 4.659-3.292 9.698-5.755 15.331-6.659l.37.775c-.685.402-1.363.817-2.056 1.205-7.106 3.963-13.382 8.955-18.335 15.428-2.148 2.808-3.79 5.999-5.71 8.984-1.91 2.97-1.252 6.223-.979 9.376.284 3.277.828 6.539 1.43 9.776.165.885.758 1.927 1.48 2.433 3.908 2.743 6.56 6.564 9.232 10.376 1.623 2.318 3.171 4.686 5.033 7.446 1.143-2.466 1.95-4.494 2.99-6.395 2.76-5.043 5.291-10.259 8.545-14.97 2.712-3.926 4.486-8.111 5.787-12.58 1.773-6.089 3.423-12.213 5.147-18.315.103-.367.394-.68.598-1.019.114.047.228.092.34.139" fill="#351f17"/><path d="M187.716 132.033c8.552-.247 14.28 6.303 16.784 12.35.576 1.389.004 2.3-1.385 2.71-8.444 2.49-16.819 1.168-22.279-7.212-.69-1.057-1.252-2.204-1.8-3.345-.984-2.052-.779-2.664 1.49-3.221 2.358-.58 4.79-.867 7.19-1.282m-33.433-7.568c-3.359-.195-3.603-.635-2.998-3.968.871-4.8 2.536-9.165 6.388-12.354 3.827-3.17 8.394-4.218 13.266-4.127 1.241.024 1.728.783 1.789 1.997.363 7.252-6.12 15.75-13.267 17.338-1.724.383-3.452.743-5.178 1.114m-12.522-22.615c.28-8.375 3.774-13.363 9.395-17.08 1.112-.734 1.843-.371 2.452.729 5.208 9.4 4.2 18.905-4.983 25.504-2.198 1.58-3.056 1.496-4.04-.928-1.258-3.099-2.186-6.334-2.824-8.226" fill="#80cc28"/><path d="M176.94 129.414c-1.741.05-4.801-.825-7.681-2.347-1.72-.91-1.763-1.299-.707-2.93 2.483-3.836 5.539-7.034 9.859-8.798 5.512-2.248 10.757-1.301 15.825 1.424 1.04.561 1.437 1.305.672 2.475-3.89 5.961-8.801 10.224-17.968 10.176" fill="#2e8629"/><path d="M164.812 136.393c9.187.07 16.481 5.935 18 16.233.352 2.391-.353 3.009-2.755 2.88-3.993-.217-7.909-.562-11.374-2.913-4.876-3.306-7.403-7.97-8.147-13.698-.292-2.25-.083-2.434 2.247-2.499.676-.019 1.352-.003 2.029-.003" fill="#80cc28"/><path d="M132.17 126.58c-3.033-2.72-4.614-6.151-5.6-9.838-1.914-7.16.893-12.897 5.81-17.866 1.325-1.34 1.956-1.288 3.117.16 7.263 9.052 6.451 20.352-3.327 27.545m49.177-24.117c-10.508-.51-17.218-7.039-18.098-17.79-.116-1.418.515-2.078 1.876-2.06 9.416.125 17.922 4.513 19.422 15.689.022.168.042.334.065.502.499 3.612.4 3.723-3.265 3.659" fill="#2e8629"/><path d="M193.179 32.285c2.737-.07 3.208.331 2.98 3.016-.73 8.584-6.54 15.751-15.236 16.832-1.259.156-2.52.383-3.782.398-1.94.024-2.49-.554-2.26-2.454 1.242-10.194 7.078-17.322 18.298-17.792m-32.706 12.531c-.249 6.867-2.209 12.916-8.753 16.317-2.277 1.183-4.87 1.818-7.379 2.471-1.542.4-2.47-.368-2.494-2.03-.159-10.574 4.377-18.62 16.492-20.773 1.501-.268 2.037.427 2.125 1.734.05.757.01 1.52.01 2.281m40.49 21.539c-5.936.004-10.075-1.91-13.677-5.072-1.858-1.631-1.754-2.312.193-3.999 5.103-4.424 10.837-6.437 17.561-4.587 3.251.894 5.959 2.728 8.366 5.05.882.853 1.066 1.722.092 2.6-3.868 3.482-8.236 5.848-12.535 6.008" fill="#80cc28"/><path d="M20.217 142.201c3.66-5.663 7.796-10.08 14.83-10.928 4.27-.515 8.006.702 11.707 2.467 1.18.564 1.704 1.321.872 2.608-4.093 6.325-9.539 10.296-17.42 9.715-3.562-.263-6.87-1.466-9.99-3.862" fill="#2e8629"/><path d="M190.299 77.648c8.401-.487 14.392 5.419 17.03 11.89.815 1.997.555 2.522-1.548 3.089-4.941 1.332-9.82 1.557-14.616-.72-4.574-2.174-7.202-6.01-9.202-10.41-.624-1.374-.1-2.357 1.372-2.646 2.31-.455 4.642-.807 6.964-1.203M93.934 82.53c.195-7.669 3.333-12.638 9.015-16.1 5.063-3.086 5.524-2.834 6.73 2.871 1.848 8.743-2.508 16.724-11.373 20.49-1.878.797-2.862.329-3.343-1.704-.502-2.126-.802-4.299-1.03-5.556m1.577 50.897c-9.874-.238-16.985-6.842-18.174-17.346-.163-1.44.449-2.003 1.838-2.048 11.104-.351 18.905 5.5 20.116 17.267.146 1.422-.34 2.1-1.748 2.123-.677.012-1.354.001-2.031.004M71.442 97.901c4.872.458 9.356 2.708 12.957 6.73.831.928.866 1.738-.17 2.57-8.52 6.843-17.858 7.082-26.025-.642-1.744-1.65-1.737-2.404.178-3.838 3.71-2.778 7.751-4.821 13.06-4.82" fill="#80cc28"/><path d="M117.324 80.38c-8.438-7.612-8.558-21.396 1.885-28.48 8.58 7.864 8.487 21.13-1.885 28.48" fill="#2e8629"/><path d="M27.423 167.63c-3.662-.029-4.126-.383-3.53-3.94 1.75-10.457 8.738-15.946 18.967-16.025 1.838-.015 2.422.558 2.2 2.273-1.075 8.351-4.714 15.286-14.372 17.338-1.065.227-2.175.241-3.265.355M100.308 48.97c-1.268 0-2.541.07-3.803-.02-1.024-.071-1.51-.74-1.265-1.769 1.501-6.298 4.068-11.824 10.383-14.785 3.504-1.644 7.17-1.825 10.914-1.601 1.21.072 1.933.7 1.663 1.994-1.47 7.07-4.514 12.979-11.918 15.412-1.896.624-3.945.783-5.923 1.155l-.051-.385" fill="#80cc28"/><path d="M4.092 130.15c5.086-8.719 15.439-12.202 24.557-7.369.3.158.586.34.88.507 3.425 1.949 3.576 2.638.777 5.344-4.21 4.067-8.952 6.875-15.158 6.364-4.249-.35-7.657-2.324-11.056-4.846" fill="#2e8629"/><path d="M88.79 35.673c-.63 2.603-1.224 5.216-1.905 7.806-.265 1.009-.91 1.704-2.064 1.101-4.962-2.59-9.427-5.705-11.211-11.4-1.385-4.421-1.052-8.813.476-13.147.516-1.461 1.507-1.708 2.806-1.088 6.122 2.926 11.964 8.524 11.897 16.728" fill="#80cc28"/><path d="M132.851 53.937c-2.087-2.406-3.168-5.314-3.633-8.256-1.104-6.986.736-13.036 6.603-17.514 4.396-3.355 3.674-2.568 5.614 1.477 4.41 9.197 1.152 19.41-7.555 23.956-.285.15-.62.205-1.029.337" fill="#2e8629"/><path d="M30.707 78.516c6.745.07 11.332 2.764 15.133 7.09 1.063 1.209.75 2.08-.425 2.929-8.67 6.252-18.519 5.662-25.783-2.27-1.481-1.617-1.482-2.185.204-3.486 3.439-2.658 7.361-4.062 10.871-4.263m33.299 72.051c.758 8.405-5.135 15.077-12.296 17.422-.638.21-1.294.41-1.956.482-1.974.213-2.435-.16-2.539-2.117-.089-1.687-.052-3.38-.097-5.069-.182-6.828 4.55-13.081 11.234-15.648.944-.364 1.9-.72 2.88-.961 1.92-.476 2.46-.083 2.726 1.837.035.251.045.507.046.759.005 1.097.002 2.197.002 3.295" fill="#80cc28"/><path d="M71.913 85.367c-7.861-4.736-11.361-13.122-8.603-21.139.656-1.904 1.574-3.75 2.605-5.484.964-1.627 1.55-1.647 3.005-.533 5.998 4.594 8.866 10.604 7.651 18.157-.54 3.353-2.116 6.388-4.658 8.999" fill="#2e8629"/><path d="M58.041 68.533c-.516 2.311-.927 4.822-1.662 7.232-.558 1.827-1.474 2.119-3.106 1.178-4.857-2.8-9.158-6.09-10.616-11.97-1.08-4.354-.664-8.526 1.01-12.629.444-1.09 1.218-1.39 2.23-.843 4.71 2.542 8.92 5.663 10.913 10.858.713 1.857.809 3.953 1.231 6.174m48.963-51.956c-.291 6.543-3.946 10.956-9.123 14.366-1.072.706-2.074.2-2.478-.88-1.059-2.823-2.436-5.638-2.847-8.572-1.007-7.192 2.596-12.459 8.052-16.642 2-1.534 2.56-1.321 3.68.82 1.756 3.362 2.807 7.542 2.716 10.908m-89.149 85.164c1.673.235 3.362.387 5.013.73 1.857.384 2.34 1.196 1.682 2.902-1.71 4.428-4.171 8.33-8.317 10.904-3.377 2.097-7.102 2.595-10.99 2.212-1.094-.108-2.197-.188-3.275-.392-1.67-.318-2.21-1.116-1.678-2.697 2.663-7.903 8.598-13.741 17.565-13.659" fill="#80cc28"/><path d="M37.46 65.932c-.036.279-.102.867-.192 1.45-.67 4.385-.845 4.517-4.882 2.889-2.92-1.176-5.68-2.628-7.878-4.988-4.416-4.746-5.513-10.304-4.176-16.496.294-1.359 1-1.796 2.386-1.4 4.611 1.314 8.668 3.581 11.542 7.436 2.334 3.132 3.048 6.924 3.2 11.109m109.317 78.365c-.021-3.096.347-3.435 3.351-2.826 8.18 1.654 11.593 7.166 11.89 14.21.1 2.376-.746 3.062-3.107 2.6-7.375-1.443-11.843-6.133-12.134-13.984" fill="#2e8629"/><path d="M204.601 122.237c4.018-.263 7.107 1.775 10.072 4.09 1.14.892 1.372 1.876.139 2.92-6.213 5.258-13.439 5.961-19.893.192-1.746-1.562-1.643-2.059.233-3.533 2.776-2.183 5.743-3.88 9.45-3.67M79.063 152.705c-.2 5.986-3.256 9.891-8.248 12.588-1.137.615-1.941.427-2.44-.772-3.155-7.565-1.067-15.365 6.496-19.267 1.378-.711 2.35-.378 2.74 1.07.568 2.104.975 4.252 1.452 6.381m126.256-42.819c.136 1.484-.499 2.159-2.031 2.218-7.148.274-13.279-4.532-14.61-11.556-.157-.823-.32-1.732-.115-2.507.145-.556.906-1.368 1.377-1.357 8.245.181 13.825 3.603 15.316 12.443.041.249.043.506.063.759m-89.553 17.924c-.127-4.026 1.43-7.152 3.757-9.963.668-.806 1.458-1.615 2.5-.463 2.78 3.08 4.967 6.462 4.936 10.806-.027 3.825-1.644 7.003-4.194 9.78-1.009 1.098-1.896.94-2.735-.122-2.391-3.027-4.496-6.179-4.264-10.038" fill="#80cc28"/><path d="M196.95 72.575c5.08-4.998 13.307-4.92 18.882.058 3.656 3.264 3.463 4.518-.964 6.442-6.397 2.778-14.12.765-17.917-6.5" fill="#2e8629"/><path d="M167.481 69.121c5.112-6.777 15.167-7.31 21.079-1.424.941.936 1.199 1.81.108 2.782-6.641 5.914-14.796 6.018-21.187-1.358m-10.434-46.142c-.111 6.625-3.055 10.245-7.162 13.173-1.132.807-1.938.332-2.468-.723-3.472-6.921-2.574-14.529 4.486-19.212 1.732-1.149 2.558-.974 3.332.968.892 2.244 1.454 4.619 1.812 5.794" fill="#80cc28"/><path d="M174.744 35.119c-.492 5.397-3.273 9.014-7.443 11.79-.958.638-1.705.455-2.3-.586-4.128-7.219-2.404-15.099 4.435-19.574 1.361-.889 2.275-.76 2.85.723.967 2.492 1.654 5.092 2.458 7.647" fill="#2e8629"/><path d="M114.76 85.57c4.437-.009 4.887.675 3.197 4.865-2.693 6.677-8.192 9.878-15.344 8.932-1.827-.242-2.39-.976-1.805-2.787 2.047-6.321 6.246-11.31 13.953-11.01m-33.03-31.843c-.006 4.989-.608 5.405-5.115 3.53-6.218-2.585-9.776-9.474-8.112-15.705.54-2.023.899-2.219 2.817-1.54 6.821 2.415 10.42 7.155 10.41 13.715" fill="#80cc28"/><path d="M40.84 101.173c1.646.307 3.303.572 4.937.934 1.144.254 1.472 1.041 1.045 2.114-2.938 7.39-10.427 12.08-18.558 8.821-.982-.394-1.247-1.068-.851-2.016 2.171-5.205 6.244-9.897 13.427-9.853" fill="#2e8629"/><path d="M52.687 121.77c-3.636.268-6.612-1.017-9.262-3.148-1.623-1.305-1.59-2.046-.02-3.456 2.442-2.196 5.25-3.851 8.485-4.308 4.358-.616 8.115 1.087 11.385 3.885.895.765.706 1.702-.139 2.402-3.084 2.553-6.192 5.086-10.45 4.625M21.218 94.065c-6.971 5.222-17.133 3.02-20.83-4.269-.71-1.399.07-2.032 1.163-2.559 6.885-3.314 14.632-1.849 18.796 5.166.297.498.54 1.028.87 1.662" fill="#80cc28"/><path d="M123.01 13.45c4.874.002 5.205.51 3.292 5.055-2.626 6.242-8.893 9.696-15.11 8.328-1.958-.43-2.355-.941-1.817-2.754 1.856-6.26 6.628-10.994 13.635-10.63" fill="#2e8629"/><path d="M16.033 67.287c3.95-.126 7.26 1.346 10.036 4.084 1.468 1.448 1.502 1.912-.164 3.218-6.232 4.884-13.724 4.846-19.445-.988-1.159-1.18-1.06-1.834.228-2.925 2.488-2.108 5.982-3.375 9.345-3.39" fill="#80cc28"/><path d="M56.113 22.09c.263-1.573.417-3.086.792-4.542.292-1.136 1.066-1.637 2.325-1.1 7.208 3.075 11.26 9.385 9.068 17.29-.529 1.911-1.123 2.369-2.613 1.655-3.888-1.864-7.403-4.213-8.759-8.625-.463-1.508-.555-3.13-.813-4.677" fill="#2e8629"/><path d="M75.344 6.59c.337-1.718.588-3.46 1.035-5.149.388-1.468 1.462-1.758 2.768-1.104 3.948 1.979 7.103 4.894 7.958 9.27.53 2.716.027 5.696-.364 8.508-.248 1.782-1.385 2.305-2.708 1.485-2.641-1.64-5.308-3.267-6.901-6.163-1.184-2.152-1.777-4.358-1.788-6.846M62.84 51.921c-.43 2.116-.704 3.943-1.19 5.712-.34 1.239-1.198 1.807-2.522 1.082-7.303-4.004-10.004-9.416-7.787-17.675.616-2.296 1.449-2.467 3.526-1.276 2.765 1.587 5.23 3.528 6.442 6.559.733 1.833 1.06 3.829 1.53 5.598M3.966 49c7.105.093 12.312 4.43 13.515 11.259.317 1.796-.044 2.396-1.823 2.497C8.152 63.18 2.364 60.077.336 52.179-.379 49.392-.11 49.063 2.701 49c.42-.009.843-.001 1.265-.001" fill="#80cc28"/><path d="M269.557 77.067v5.137h-31.514v23.121h28.688v5.139h-28.688v26.547h-5.566V77.067h37.08M282.57 93.08v9.848c2.055-6.937 8.305-11.048 17.726-11.048 1.968 0 3.853.172 5.565.857l.599 5.224c-2.055-.942-4.537-1.285-7.363-1.285-9.934 0-16.272 7.879-16.272 16.7v23.635h-5.137V93.08h4.881m37.161 0v43.93h-5.137V93.08zm0-20.296v13.36h-5.137v-13.36h5.138M353.81 96.59c-10.275 0-16.698 6.08-17.898 15.244h33.227c-.256-11.303-7.107-15.243-15.328-15.243zm0-4.794c15.158 0 22.18 10.276 20.98 24.662h-39.134c.515 9.507 6.85 17.04 18.927 17.04 7.19 0 12.244-2.31 15.841-5.308l2.997 3.682c-4.453 3.766-10.705 6.336-19.268 6.336-16.27 0-24.064-10.105-24.064-23.035 0-12.673 8.564-23.377 23.722-23.377m35.449 1.284v9.42c2.053-6.25 8.304-10.704 17.725-10.704 11.303 0 18.583 6.336 18.583 18.84v26.375h-5.137v-25.177c0-11.475-5.655-15.414-14.302-15.414-10.705 0-16.614 7.707-16.614 16.527v24.064h-5.139V93.08h4.884m69.872 40.59c13.188 0 19.523-9.762 19.523-17.983v-2.482c0-9.764-8.391-16.785-18.926-16.785-11.901 0-19.181 7.28-19.181 18.668 0 12.075 7.965 18.583 18.584 18.583zm-.343-41.874c10.703 0 17.642 5.565 19.608 10.276V72.784h5.054v64.227h-4.796v-9.422c-2.568 4.626-8.219 10.706-20.295 10.706-14.043 0-23.379-8.991-23.379-22.95 0-14.644 10.279-23.549 23.808-23.549m53.001 42.046c7.28 0 12.074-2.312 12.074-8.992 0-6.679-6.595-7.963-13.444-9.248-7.365-1.37-15.156-2.998-15.156-11.475 0-8.222 6.936-12.331 16.696-12.331 7.193 0 12.848 2.055 16.357 4.365l-1.798 3.94c-3.424-2.14-7.45-4.024-14.559-4.024-7.792 0-11.39 2.654-11.39 7.623 0 5.565 5.91 6.677 12.333 7.877 7.792 1.456 16.357 3.168 16.357 12.93 0 8.052-5.225 13.701-17.127 13.701-6.593 0-14.045-1.883-18.925-5.394l2.056-4.195c4.45 2.826 10.276 5.223 16.525 5.223m-258.845 84.384c11.817 0 20.21-7.191 20.21-18.667 0-11.733-8.82-18.495-19.954-18.495-11.56 0-20.296 7.19-20.296 18.923 0 11.818 8.736 18.24 20.04 18.24zm.256-41.788c16.527 0 25.52 10.275 25.52 22.866 0 12.93-9.421 23.548-26.119 23.548-16.014 0-25.262-9.59-25.262-22.865 0-12.845 8.905-23.549 25.861-23.549m36.904 1.286v-5.225c0-10.276 5.908-16.442 15.843-16.442 3.425 0 7.108.686 9.59 1.8l.686 4.793c-3.083-1.198-6.68-1.967-9.678-1.967-7.793 0-11.304 3.766-11.304 12.073v4.968h18.327v4.623h-18.327v39.307h-5.137v-39.307h-8.82v-4.623h8.82m54.372-16.014V188h36.139v-26.29h5.565v59.944h-5.565v-28.689h-36.139v28.689h-5.565v-59.945h5.565m78.008 56.517c11.816 0 20.21-7.191 20.21-18.667 0-11.733-8.82-18.495-19.955-18.495-11.559 0-20.295 7.19-20.295 18.923 0 11.818 8.736 18.24 20.04 18.24zm.255-41.788c16.526 0 25.52 10.275 25.52 22.866 0 12.93-9.422 23.548-26.118 23.548-16.014 0-25.265-9.59-25.265-22.865 0-12.845 8.908-23.549 25.863-23.549m49.148 42.046c7.278 0 12.074-2.31 12.074-8.992 0-6.679-6.593-7.963-13.442-9.247-7.366-1.372-15.159-2.997-15.159-11.474 0-8.223 6.936-12.333 16.699-12.333 7.196 0 12.845 2.057 16.357 4.367l-1.799 3.942c-3.426-2.143-7.452-4.026-14.558-4.026-7.792 0-11.388 2.654-11.388 7.622 0 5.566 5.908 6.678 12.329 7.877 7.795 1.456 16.357 3.17 16.357 12.932 0 8.05-5.222 13.7-17.128 13.7-6.593 0-14.042-1.883-18.922-5.395l2.053-4.196c4.453 2.827 10.276 5.223 16.527 5.223m51.892-.258c11.905 0 19.184-7.876 19.184-19.265 0-11.477-7.795-17.897-18.414-17.897-13.102 0-19.781 9.76-19.781 17.897v2.482c0 9.762 8.477 16.783 19.01 16.783zm-18.839-40.502v9.506c2.483-4.54 8.65-10.792 20.637-10.792 14.131 0 22.951 8.906 22.951 22.866 0 14.643-10.275 23.548-23.807 23.548-10.705 0-17.984-5.565-19.694-10.275v26.802h-4.97v-61.655h4.883m58.995 0v43.93h-5.138v-43.93zm0-20.298v13.362h-5.138v-13.362h5.138m35.022 19.012c6.51 0 11.904 1.626 16.102 4.367l-2.74 4.026c-3.34-2.142-7.708-3.598-13.019-3.598-12.759 0-19.439 7.792-19.439 18.583 0 10.534 6.251 18.41 18.412 18.41 6.85 0 11.646-2.311 15.243-5.307l2.999 3.682c-4.455 3.767-10.363 6.251-18.071 6.251-16.27 0-24.148-9.675-24.148-23.036 0-12.674 8.307-23.378 24.661-23.378m44.698 4.795c-10.276 0-16.699 6.082-17.896 15.243h33.226c-.258-11.303-7.11-15.243-15.33-15.243zm0-4.795c15.157 0 22.18 10.275 20.98 24.662H625.5c.516 9.508 6.852 17.042 18.927 17.042 7.193 0 12.245-2.311 15.84-5.309l2.998 3.683c-4.453 3.768-10.705 6.336-19.268 6.336-16.27 0-24.064-10.105-24.064-23.036 0-12.674 8.563-23.378 23.722-23.378" fill="#845333"/><path d="M664.104 243.04h-563.59v-4.804h563.59v4.804" fill="#351f17"/></svg>